<svg width="12" height="12" viewBox="0 0 12 12" fill="none" xmlns="http://www.w3.org/2000/svg">
<path d="M10.7725 6.20045C10.6849 7.14813 10.3292 8.05127 9.74709 8.80419C9.16496 9.55711 8.38044 10.1287 7.48532 10.452C6.59021 10.7753 5.62153 10.837 4.69262 10.6299C3.76371 10.4228 2.91301 9.95539 2.24004 9.28242C1.56708 8.60945 1.09969 7.75875 0.892562 6.82984C0.685438 5.90094 0.747147 4.93225 1.07047 4.03714C1.39379 3.14202 1.96535 2.3575 2.71827 1.77537C3.47119 1.19324 4.37433 0.837578 5.32201 0.75C4.76717 1.50063 4.50018 2.42547 4.5696 3.35631C4.63901 4.28716 5.04022 5.16217 5.70026 5.8222C6.36029 6.48224 7.2353 6.88345 8.16615 6.95286C9.09699 7.02228 10.0218 6.75529 10.7725 6.20045Z" stroke="#B69B89" stroke-linecap="round" stroke-linejoin="round"/>
</svg>
